# xmcd
#
# Track frame offsets: 
#        150
#        10085
#        22431
#        32159
#        45399
#        59294
#        71746
#        83041
#        93124
#        103694
#        115724
#        125751
#        133954
#        147986
#        159643
#        172546
#        190931
#        203261
#        217966
#        241130
#        251890
#        263797
#        277007
#        291470
#        314167
#        333024
#
# Disc length: 4693 seconds
#
# Revision: 0
# Processed by: cddbd v1.5.2PL0 Copyright (c) Steve Scherf et al.
# Submitted via: ExactAudioCopy v0.99pb3
#
DISCID=7f12531a
DTITLE=Johnny Halliday - French Collection
DYEAR=2000
DGENRE=Blues
TTITLE0=Souvenirs Souvenirs
TTITLE1=Il Faut Saisir Sa Chance
TTITLE2=Let's Twist Again
TTITLE3=Retiens La Nuit
TTITLE4=Sam Di Soir
TTITLE5=Pas Cette Chanson (Don't Play That Song)
TTITLE6=L'Idole Des Jeunes
TTITLE7=Les Bras En Croix
TTITLE8=Quand Un Air Vous Possede (My Little Girl Is Smiling)
TTITLE9=Douces Filles De Seize Ans (Sweet Little Sixteen)
TTITLE10=Pour Moi La Vie Va Commencer
TTITLE11=Ma Guitare
TTITLE12=Excuse Moi Partenaire
TTITLE13=Frankie Et Johnny
TTITLE14=O Carole
TTITLE15=Le Penitencier (The House Of Rising Sun)
TTITLE16=Je L'aime (Girl)
TTITLE17=Noir C'est Noir (Black Is Black)
TTITLE18=La Musique Que J'aime
TTITLE19=La Fille De L'ete Dernier (Summertime Blues)
TTITLE20=Hay, Lovely Lady
TTITLE21=Gabrielle (The King Is Dead)
TTITLE22=Le Bon Temps Du Rock'N'Roll
TTITLE23=Comme Un Roc
TTITLE24=Ce Que Je Sais
TTITLE25=Sang Pour Sang
EXTD=BOB'S REC
EXTT0=
EXTT1=
EXTT2=
EXTT3=
EXTT4=
EXTT5=
EXTT6=
EXTT7=
EXTT8=
EXTT9=
EXTT10=
EXTT11=
EXTT12=
EXTT13=
EXTT14=
EXTT15=
EXTT16=
EXTT17=
EXTT18=
EXTT19=
EXTT20=
EXTT21=
EXTT22=
EXTT23=
EXTT24=
EXTT25=
PLAYORDER=
